<svg width="88" height="80" viewBox="0 0 88 80" fill="none" xmlns="http://www.w3.org/2000/svg">
<path d="M2 2C0.1 3.9 0 5.3 0 32C0 58.7 0.1 60.1 2 62C3.8 63.8 5.3 64 20 64H36V68V72H32H28V76V80H44H60V76V72H56H52V68V64H68C82.7 64 84.2 63.8 86 62C87.9 60.1 88 58.7 88 32C88 5.3 87.9 3.9 86 2C84.1 0.0999985 82.7 0 44 0C5.3 0 3.9 0.0999985 2 2ZM80 32V56H44H8V32V8H44H80V32Z" fill="white"/>
<path d="M40.5 30.9C38.4 39.7 36.8 47.2 37.1 47.5C37.4 47.7 39 48.2 40.6 48.6L43.5 49.2L47.5 33.1C49.6 24.3 51.2 16.7999 50.9 16.5C50.6 16.2999 49 15.7999 47.4 15.4L44.5 14.7999L40.5 30.9Z" fill="white"/>
<path d="M22 25.5L15.5 32L22.3 38.7L29 45.5L31.2 43.2L33.4 41L29 36.5L24.6 32L29 27.5C33.3 23.1 33.3 23 31.5 21C30.5 19.9 29.4 19 29.1 19C28.7 19 25.5 21.9 22 25.5Z" fill="white"/>
<path d="M56.5 21C54.7 23 54.7 23.1 59 27.5L63.4 32L59 36.5L54.6 41L56.8 43.2L59 45.5L65.7 38.7L72.5 32L66 25.5C62.5 21.9 59.3 19 58.9 19C58.6 19 57.5 19.9 56.5 21Z" fill="white"/>
</svg>
